PathFileType	4	(X/Y/Z)	/mnt/D494C4CF94C4B4F0/Trampoline_predictions/poses3d/1_partie_0429.trc
DataRate	CameraRate	NumFrames	NumMarkers	Units	OrigDataRate	OrigDataStartFrame	OrigNumFrames
120	120	12	17	m	120	0	1746
Frame#	Time	Nose			L Eye			R Eye			L Ear			R Ear			L Shoulder			R Shoulder			L Elbow			R Elbow			L Wrist			R Wrist			L Hip			R Hip			L Knee			R Knee			L Ankle			R Ankle			
		X1	Y1	Z1	X2	Y2	Z2	X3	Y3	Z3	X4	Y4	Z4	X5	Y5	Z5	X6	Y6	Z6	X7	Y7	Z7	X8	Y8	Z8	X9	Y9	Z9	X10	Y10	Z10	X11	Y11	Z11	X12	Y12	Z12	X13	Y13	Z13	X14	Y14	Z14	X15	Y15	Z15	X16	Y16	Z16	X17	Y17	Z17	
0	0.0	0.7108596475166413	-0.06147484240818282	5.7164662776852095	0.7376284512014784	-0.07578987340672307	5.750167891744354	0.7269367762288549	-0.05246841132860832	5.747315128249846	0.8148544795857096	-0.10573389738466486	5.746764207283035	0.787645219121592	-0.04085328639899933	5.745588498100407	0.8788579697294495	-0.25122616798570624	5.570576454584992	0.8781245952015677	0.102432680852123	5.577353112860024	0.919091295735328	-0.28435344007776187	5.340781727899934	0.9229574416977965	0.13938500618558552	5.357443628646582	0.9249728132924798	-0.28528185911158993	5.119341036111457	0.9553635524734488	0.15299909147394405	5.0947660089377695	0.9409458175202061	-0.09964782589825934	5.16871156715351	0.9230918621981358	-0.04342964685010749	5.156372928152816	0.889042891727273	-0.10012753980019545	4.78407538127924	0.8983124205007175	-0.050785002791314295	4.77435948678288	0.9150784149606761	-0.06074281459855376	4.39948671430659	0.9076383324092494	-0.02179719633635407	4.404402889510617
1	0.008333333333	0.7112843307357547	-0.05849023626746945	5.675241870638315	0.738166870928437	-0.0733731191971211	5.712910302772962	0.7257999144011393	-0.04592738364968468	5.711922468285004	0.8134886742168651	-0.10482127346655881	5.717343281243667	0.7878799510159077	-0.036832123156988826	5.717725940222124	0.8851680119603582	-0.2340421147054307	5.544143400448628	0.8929654406104536	-0.23703507606820742	5.509223859168093	0.9147879462173404	-0.28426691877583565	5.311129816001889	0.8966223822118876	-0.24639280681192985	5.283347937627002	0.9260569422979951	-0.2839515983390702	5.0852521823210886	0.9549196464863411	0.15462702260115077	5.043287563181325	0.9370032158681543	-0.10743074879573652	5.132537563740486	0.908765051394591	-0.035578374951083715	5.119475510770232	0.8806398121538341	-0.0961466424830473	4.749644634023773	0.8997649073708838	-0.057408028424524665	4.733834669314269	0.9120654030670214	-0.05803230519614683	4.360649095656016	0.9081404085983151	-0.03019953830756735	4.362812989041587
2	0.016666666667	0.708318208968005	-0.05921037369797154	5.648018927531425	0.7362939736632107	-0.07720970857628216	5.6859742373585	0.7229776961793948	-0.04715278928196822	5.68352748022042	0.8136156954342851	-0.11227064356289451	5.690915797087264	0.7836188692844188	-0.035410194783438154	5.691583772702101	0.8804812668534903	-0.24909850490962623	5.510439487126128	0.8823347491574567	0.08410224828415701	5.535765923048216	0.9225670153869683	-0.28683085101069894	5.272353284564912	0.921935497905527	0.1316258885795724	5.305494073196141	0.932945755047364	-0.2878876912450627	5.04158301296822	0.9576456363252239	0.150314945082137	5.030536699642391	0.9383928849568065	-0.12256529151465852	5.094131307505807	0.9270368953162876	-0.04897625166640428	5.089320728633513	0.8829230446497884	-0.1022639269226441	4.716761944563014	0.8955547312434674	-0.05811068669923178	4.701463538318659	0.9104148721722736	-0.06193122857138147	4.3306531268794695	0.9040389673798258	-0.03122518697489671	4.328255706206377
3	0.025	0.7099142196792826	-0.05895714628030756	5.6270778199109	0.7395432094481442	-0.07477913597110601	5.663120899751363	0.7261805319593215	-0.050309301194432096	5.662325686883471	0.8166224414268962	-0.10312302982075432	5.666802313640941	0.7898505977508449	-0.04139930454995449	5.664941577591049	0.8717923144997967	-0.24737464162176123	5.481948562771603	0.8888706898411324	0.08776916753075065	5.51160394244294	0.9066504902841138	-0.28445954411608204	5.2496628346649725	0.9124448728827637	0.1384058851191299	5.276320419309472	0.9107730920131971	-0.30030896859452966	5.027782418141514	0.9671339233581506	0.1523854984175897	5.0108661613608385	0.9362422913275945	-0.10290700369008916	5.081583349879547	0.9195700540297893	-0.03699639359346762	5.073623815658642	0.8858152151654995	-0.08994915968762801	4.690660054510553	0.8962043495915243	-0.04687878791774856	4.673931669493468	0.9123422814838102	-0.057782122369013554	4.304341403018613	0.90203806242638	-0.026142476674252797	4.304003313485129
4	0.033333333333	0.7126314437680471	-0.07177449921173824	5.5862897830748315	0.742263699143964	-0.08397088791349987	5.623060055249523	0.7268280652606829	-0.05703274979165605	5.621760395201027	0.8200434037896405	-0.10722483195576464	5.628576222412034	0.7865967995639795	-0.04089487005866417	5.6293455679529005	0.879847961474757	-0.24738771383651903	5.443215595732656	0.873393111307725	0.09721633116363174	5.462931507147396	0.9166586969310246	-0.2822918957385587	5.206318258295535	0.9102254599676567	0.1335071172039049	5.2398403719149504	0.9241282585582735	-0.28387560616984386	4.981136129807007	0.9506459290736796	0.14254541603339152	4.960898012041576	0.9313470937691238	-0.11075393812741997	5.036000545534712	0.9176101043537451	-0.04143116050552372	5.032461455045654	0.877760092754583	-0.09223948100571593	4.653244077563588	0.8944966858466696	-0.05459496550038054	4.637480168719718	0.9080780928851976	-0.06491067237278236	4.26494111133415	0.9044478982227523	-0.026653841558253615	4.2676511646167645
5	0.041666666667	0.7098054603968071	-0.07161480577026708	5.554607130021731	0.7371654442229324	-0.08114463414759028	5.590686068186437	0.7267022133483462	-0.05484169785934193	5.588166638491876	0.8147907710397752	-0.10197454420806329	5.5928509135659015	0.7894577304991871	-0.03745922595544585	5.590906842154766	0.8732430116486866	-0.23954358606775225	5.406245857386088	0.8894115656376738	0.08263058944299763	5.430401551497168	0.9114020611851589	-0.2774679611711738	5.176444511134686	0.9100110556928906	0.13760949447374654	5.200367986955632	0.918462693381506	-0.2683847059895823	4.945175186641896	0.9441268818770535	0.15799630808064868	4.928163830801927	0.9262209726432079	-0.10597866491853719	4.993379359494217	0.9221507353447262	-0.03194091442778238	4.989672526799546	0.877293131465707	-0.10098552386943616	4.6132998893181645	0.9035028847549512	-0.04939276911344622	4.596159308499787	0.9000421285096283	-0.06317522056270679	4.228151052603824	0.8995921471717178	-0.022148960446706657	4.227624948315879
6	0.05	0.708628691086931	-0.05464071415762006	5.511755772449791	0.7350173899092475	-0.06711880410222318	5.5496849232286465	0.722938896137119	-0.04408346439213314	5.5467667499956805	0.8113897240233157	-0.09865807139993157	5.557190880487446	0.7828839968642067	-0.04009693274096054	5.553164521483216	0.8787016206332348	-0.23301946813905142	5.374223826836749	0.892841349289242	-0.22965449386274359	5.3416131959316315	0.9131549901122028	-0.27783059251492753	5.135711530026186	0.8843223120982703	-0.23436770965731873	5.129580659271128	0.9176106172049382	-0.2798496235723004	4.910385675785708	0.9507856941032167	0.14663838066899001	4.89071449169517	0.9327091357497848	-0.11025853396457076	4.9608180079717625	0.9243353863094758	-0.037388784887759936	4.954753539960875	0.8779310029868996	-0.09995825689693216	4.576174789717151	0.8963749304855101	-0.041731034758682325	4.556513435853586	0.8973501216244942	-0.06047969096494939	4.19219576629447	0.8946721210658236	-0.019690910110409666	4.1937938236612196
7	0.058333333333	0.7049203777394518	-0.05178768519774118	5.482057031728632	0.7331644361838443	-0.06513367200753443	5.518012436203466	0.7226203720298271	-0.03742891748914453	5.517275497561521	0.8103785874369167	-0.09815792574151294	5.524682750529566	0.7887923449284961	-0.03294900184241246	5.524224119862817	0.8722074552957761	-0.2376059954712849	5.337354712739736	0.8894372099245208	0.08216348178151708	5.360687852617822	0.9063745789386107	-0.27044149175125365	5.102180106414035	0.9158507247946988	0.13313920905192364	5.131599778444345	0.9160169636277441	-0.2666549929202764	4.871532635630453	0.9529024060644147	0.1457004422615048	4.854078658305712	0.9248173398067673	-0.10795899561813994	4.923194902026096	0.923266425603746	-0.03393735644994198	4.916810560421895	0.8748915334797432	-0.10066374247774543	4.538247373392981	0.9053088181191911	-0.007948969345563574	4.520457738747908	0.8964366287252585	-0.06201327076523722	4.149264764741001	0.89931811593679	-0.017807848222778578	4.152329401353386
8	0.066666666667	0.6974716528859014	-0.06154269049358016	5.458636656331402	0.7282161495195297	-0.07520979080118434	5.496006763791453	0.7141100650355559	-0.04464211500856279	5.495255056656234	0.8069733425895554	-0.10477626728584029	5.502000739826848	0.7789039942203372	-0.029804189367516543	5.498958797868354	0.8830391718627704	-0.22732380617515718	5.312873188837947	0.8666963499094327	-0.2297883557208685	5.276782094079568	0.9125229999067507	-0.2846835284828843	5.071165636725426	0.8692776619425738	-0.22350396840085168	5.060608666967993	0.9169538469423006	-0.27370583911123647	4.841206769293396	0.8625153827010239	-0.22107017329681017	4.858677460399889	0.9302884870292661	-0.11251209351886635	4.889551662683034	0.9139255944632211	-0.04086592216795587	4.883867531186481	0.878497333659226	-0.09358289053185573	4.508280055766181	0.8943872536998115	-0.03730941410608908	4.486468238895177	0.9018530449346704	-0.06259238124314917	4.118267143950442	0.898442308757284	-0.02896212851311533	4.114377306507206
9	0.075	0.6979097705899014	-0.05901291309843414	5.414588411055413	0.7243894152175615	-0.07209371763962787	5.454549737563948	0.7118492958047197	-0.04123952424572809	5.453076877736421	0.8026615471974851	-0.1026208725961799	5.4630242358773575	0.7750006132889466	-0.025698445250407292	5.458012528594253	0.8804471775059919	-0.23431254742272992	5.274112885247897	0.8670144388510412	0.10139169990312782	5.28525288960418	0.9174591079358276	-0.2809977091989343	5.037228733194698	0.889538845876039	0.1401991941459496	5.0498083830690765	0.9145729863855211	-0.2705709331013177	4.806526919842405	0.9360699463218798	0.14749798527492236	4.759978041467832	0.935109922242249	-0.10263083503912744	4.856675991262427	0.9253150150305831	-0.03588127548866973	4.8509015183765225	0.8735771613288383	-0.0923958970015674	4.472125675644326	0.8996351816491694	0.0034492843443757752	4.4653562398883295	0.8942013597922419	-0.060952472032205204	4.08130581488408	0.8939284336733558	-0.018374248612984072	4.080460256041128
10	0.083333333333	0.6988619082457521	-0.0630298888193299	5.3644847368303585	0.7267627444886282	-0.07534381771514725	5.40097878197545	0.7177382927212036	-0.04789063917678908	5.399296580196008	0.8045118542377638	-0.10215550072799576	5.406852179476972	0.7858142887355171	-0.033088620831095004	5.405107164815195	0.8660637428947586	-0.24073993796244353	5.224599185985754	0.884177356129574	0.07888825070342319	5.248078511493571	0.9068520697217352	-0.28083826165537074	4.991040579660765	0.9029627969732228	0.13570940099920453	5.008638200412375	0.9075758290176471	-0.26992852657835376	4.765160964397526	0.9459795698692114	0.15160195680682484	4.73636278991111	0.9238211500628548	-0.10552788189911663	4.810593005251019	0.9228949299012752	-0.037970843573677804	4.807275737443257	0.8774639526536829	-0.09261161907773839	4.418581491738183	0.8918429526348436	-0.03956601723015441	4.407182172928913	0.8973344460616142	-0.06183311861214728	4.037120480189687	0.8952905603485131	-0.026035803141877003	4.037342727265917
11	0.091666666667	0.6992884315289102	-0.07022398687873282	5.333911043078172	0.7257916628889901	-0.08232834932577408	5.36935391484507	0.7161748324908656	-0.04898559100657972	5.368328228351823	0.8039526851271146	-0.10445596591182434	5.372994971147235	0.7812332973190583	-0.02558206548449362	5.371192797712269	0.8689614544777087	-0.24193756142793843	5.187194338334393	0.8742318870668836	0.09004604350349979	5.204436358777728	0.9156579148324654	-0.28293451142167014	4.954220526605669	0.9087484461570317	0.16074615332845738	4.935142878056887	0.9113670569221226	-0.2773819288630083	4.7307899001012315	0.9458128676729348	0.14685056688265422	4.681232400086329	0.9210203171833177	-0.10567119171283743	4.76219030672371	0.9248489755321119	-0.03161394647763768	4.761508058240508	0.8705780491003848	-0.09837072005894758	4.375520684897861	0.8913354097331869	-0.03642971294390895	4.365542338833861	0.8868634091995745	-0.06168704551513351	3.990004416017071	0.8947234261852031	-0.022881711314708366	3.992266553466064
